<svg viewBox="0 0 200 116" xmlns="http://www.w3.org/2000/svg">
  <defs>
    <linearGradient id="forestGrad3" x1="0" y1="0" x2="1" y2="1">
      <stop offset="0%" stop-color="#2b7a35" />
      <stop offset="52%" stop-color="#33883b" />
      <stop offset="100%" stop-color="#22662d" />
    </linearGradient>
    <linearGradient id="quizCardSurface" x1="0" y1="0" x2="0" y2="1">
      <stop offset="0%" stop-color="#fffef2" />
      <stop offset="100%" stop-color="#eef7df" />
    </linearGradient>
    <linearGradient id="quizProgressAccent" x1="0" y1="0" x2="1" y2="0">
      <stop offset="0%" stop-color="#43a047" />
      <stop offset="100%" stop-color="#9ccc65" />
    </linearGradient>
  </defs>
  <rect width="200" height="116" fill="url(#forestGrad3)" />
  <circle cx="34" cy="22" r="24" fill="#b7ddb3" opacity="0.12" />
  <circle cx="170" cy="20" r="18" fill="#dcedc8" opacity="0.14" />
  <ellipse cx="88" cy="18" rx="40" ry="11" fill="#dcedc8" opacity="0.08" />
  <ellipse cx="100" cy="128" rx="95" ry="48" fill="#1b5e20" opacity="0.5" />
  <circle cx="31" cy="28" r="18" fill="#66bb6a" opacity="0.12" />
  <circle cx="171" cy="24" r="16" fill="#dcedc8" opacity="0.14" />
  <ellipse cx="24" cy="28" rx="12" ry="7" fill="#66bb6a" transform="rotate(-35 24 28)" opacity="0.38" />
  <ellipse cx="178" cy="88" rx="11" ry="7" fill="#8bc34a" transform="rotate(20 178 88)" opacity="0.34" />
  <rect x="41" y="18" width="118" height="82" rx="14" fill="#ffffff" opacity="0.14" />
  <rect x="46" y="24" width="108" height="72" rx="12" fill="url(#quizCardSurface)" stroke="#2e7d32" stroke-width="2.4" />
  <rect x="56" y="34" width="70" height="7" rx="3.5" fill="url(#quizProgressAccent)" />
  <rect x="130" y="33" width="14" height="14" rx="7" fill="#fff59d" opacity="0.96" />
  <line x1="58" y1="49" x2="142" y2="49" stroke="#b7ddb3" stroke-width="2.4" stroke-linecap="round" />
  <line x1="58" y1="57" x2="128" y2="57" stroke="#d6ebcc" stroke-width="2.2" stroke-linecap="round" />
  <circle cx="60" cy="69" r="7.6" fill="#f8fff0" stroke="#43a047" stroke-width="1.7" />
  <text x="60" y="73" font-size="9.5" font-weight="900" text-anchor="middle" fill="#2e7d32" font-family="sans-serif">A</text>
  <rect x="74" y="64" width="56" height="9" rx="3.2" fill="#d7efcf" />
  <rect x="134" y="64" width="10" height="9" rx="3.2" fill="#f1f8e9" />
  <circle cx="60" cy="82" r="7.6" fill="#f8fff0" stroke="#43a047" stroke-width="1.7" />
  <text x="60" y="86" font-size="9.5" font-weight="900" text-anchor="middle" fill="#2e7d32" font-family="sans-serif">B</text>
  <rect x="74" y="77" width="50" height="9" rx="3.2" fill="#c8e6c9" />
  <rect x="128" y="77" width="16" height="9" rx="3.2" fill="#edf7e7" />
  <circle cx="60" cy="95" r="7.8" fill="#43a047" stroke="#1b5e20" stroke-width="1.7" />
  <text x="60" y="99" font-size="9.5" font-weight="900" text-anchor="middle" fill="#fff" font-family="sans-serif">C</text>
  <rect x="74" y="90" width="46" height="9" rx="3.2" fill="#a5d6a7" />
  <rect x="124" y="90" width="20" height="9" rx="3.2" fill="#edf7e7" />
  <path d="M160 26 L162 20 L164 26 L170 28 L164 30 L162 36 L160 30 L154 28 Z" fill="#fffde7" opacity="0.92" />
</svg>
