<svg viewBox="0 0 200 116" xmlns="http://www.w3.org/2000/svg">
  <defs>
    <linearGradient id="forestGrad2" x1="0" y1="0" x2="0" y2="1">
      <stop offset="0%" stop-color="#a5d6a7" />
      <stop offset="55%" stop-color="#388e3c" />
      <stop offset="100%" stop-color="#1b5e20" />
    </linearGradient>
  </defs>
  <rect width="200" height="116" fill="url(#forestGrad2)" />
  <polygon points="0,116 28,62 52,116" fill="#0d3b0d" opacity="0.35" />
  <polygon points="168,116 188,58 200,116" fill="#0d3b0d" opacity="0.4" />
  <!-- Slide stack -->
  <rect x="58" y="34" width="84" height="56" rx="6" fill="#e8f5e9" opacity="0.45" transform="rotate(-4 100 62)" />
  <rect x="52" y="38" width="88" height="58" rx="6" fill="#fff" opacity="0.55" transform="rotate(-2 96 67)" />
  <rect x="48" y="42" width="92" height="60" rx="7" fill="#f1f8e9" stroke="#2e7d32" stroke-width="2" />
  <rect x="58" y="52" width="48" height="6" rx="2" fill="#81c784" opacity="0.85" />
  <rect x="58" y="64" width="72" height="4" rx="1.5" fill="#a5d6a7" opacity="0.9" />
  <rect x="58" y="72" width="64" height="4" rx="1.5" fill="#c8e6c9" opacity="0.95" />
  <rect x="58" y="80" width="56" height="4" rx="1.5" fill="#c8e6c9" opacity="0.85" />
  <ellipse cx="175" cy="22" rx="14" ry="9" fill="#66bb6a" transform="rotate(25 175 22)" opacity="0.7" />
</svg>
