<svg viewBox="0 0 200 116" xmlns="http://www.w3.org/2000/svg">
  <rect width="200" height="116" fill="#1b5e20" />
  <rect width="200" height="116" fill="url(#forestGrad1)" />
  <defs>
    <linearGradient id="forestGrad1" x1="0" y1="0" x2="0" y2="1">
      <stop offset="0%" stop-color="#1a237e" />
      <stop offset="100%" stop-color="#1b5e20" />
    </linearGradient>
  </defs>
  <!-- Moon -->
  <circle cx="155" cy="30" r="18" fill="#fff9c4" opacity="0.9" />
  <circle cx="163" cy="25" r="13" fill="#1a237e" />
  <!-- Trees silhouette -->
  <polygon points="0,116 20,70 40,116" fill="#0d3b0d" />
  <polygon points="25,116 50,50 75,116" fill="#1b5e20" />
  <polygon points="60,116 80,62 100,116" fill="#0d3b0d" />
  <polygon points="140,116 160,55 180,116" fill="#0d3b0d" />
  <polygon points="165,116 185,48 200,116" fill="#1b5e20" />
  <!-- Stars -->
  <circle cx="40" cy="20" r="1.5" fill="#fff" opacity="0.8" />
  <circle cx="80" cy="15" r="1.5" fill="#fff" opacity="0.7" />
  <circle cx="120" cy="22" r="1" fill="#fff" opacity="0.9" />
  <circle cx="60" cy="35" r="1" fill="#fff" opacity="0.6" />
  <!-- Magic sparkle -->
  <path d="M98 55 L100 47 L102 55 L110 57 L102 59 L100 67 L98 59 L90 57 Z" fill="#fff9c4" opacity="0.9" />
</svg>
