<svg viewBox="0 0 200 116" xmlns="http://www.w3.org/2000/svg">
  <defs>
    <linearGradient id="forestGrad2" x1="0" y1="0" x2="1" y2="1">
      <stop offset="0%" stop-color="#fff59d" />
      <stop offset="38%" stop-color="#c5e1a5" />
      <stop offset="72%" stop-color="#43a047" />
      <stop offset="100%" stop-color="#1b5e20" />
    </linearGradient>
    <linearGradient id="screenGlow" x1="0" y1="0" x2="0" y2="1">
      <stop offset="0%" stop-color="#ffffff" />
      <stop offset="100%" stop-color="#e8f5e9" />
    </linearGradient>
  </defs>
  <rect width="200" height="116" fill="url(#forestGrad2)" />
  <circle cx="34" cy="24" r="18" fill="#fffde7" opacity="0.65" />
  <circle cx="165" cy="21" r="14" fill="#fff59d" opacity="0.35" />
  <polygon points="0,116 24,62 48,116" fill="#0d3b0d" opacity="0.3" />
  <polygon points="150,116 175,52 200,116" fill="#0d3b0d" opacity="0.35" />
  <path d="M44 18 L46 10 L48 18 L56 20 L48 22 L46 30 L44 22 L36 20 Z" fill="#ffffff" opacity="0.95" />
  <path d="M156 36 L158 30 L160 36 L166 38 L160 40 L158 46 L156 40 L150 38 Z" fill="#fffde7" opacity="0.9" />
  <rect x="32" y="18" width="136" height="80" rx="16" fill="#ffffff" opacity="0.22" />
  <rect x="38" y="24" width="124" height="72" rx="14" fill="url(#screenGlow)" stroke="#2e7d32" stroke-width="2.5" />
  <rect x="49" y="34" width="92" height="7" rx="3.5" fill="#43a047" opacity="0.92" />
  <rect x="49" y="47" width="58" height="25" rx="6" fill="#c8e6c9" />
  <polygon points="56,70 68,50 78,61 88,55 101,70" fill="#43a047" />
  <circle cx="91" cy="52" r="6" fill="#fff59d" />
  <rect x="115" y="48" width="24" height="24" rx="5" fill="#e8f5e9" />
  <rect x="120" y="58" width="5" height="14" rx="2.5" fill="#66bb6a" />
  <rect x="128" y="53" width="5" height="19" rx="2.5" fill="#43a047" />
  <rect x="136" y="49" width="5" height="23" rx="2.5" fill="#2e7d32" />
  <rect x="49" y="79" width="88" height="4" rx="2" fill="#a5d6a7" opacity="0.98" />
  <rect x="49" y="86" width="72" height="4" rx="2" fill="#c5e1a5" opacity="0.98" />
</svg>
